# xmcd
#
# Track frame offsets: 
#        150
#        13135
#        25497
#        40637
#        54930
#        67677
#        81925
#        98017
#        112895
#        127727
#        140275
#        152695
#        167522
#        182395
#        195835
#        209377
#        221710
#        236425
#        251177
#        265260
#        281187
#        296140
#        311905
#        326887
#        341592
#
# Disc length: 4749 seconds
#
# Revision: 3
# Processed by: cddbd v1.5.2PL0 Copyright (c) Steve Scherf et al.
# Submitted via: ExactAudioCopyFreeDBPlugin 1.0
#
DISCID=63128b19
DTITLE=Various Artist - Boogie Woogie and Barrelhouse Piano Vol. 1 (1928-1932)
DYEAR=1992
DGENRE=Blues
TTITLE0=Pine Top Smith - Pine Top Blues [take A]
TTITLE1=Pine Top Smith - Pine Top Blues [take B]
TTITLE2=Pine Top Smith - Pine Top's Boogie Woogie [take A]
TTITLE3=Pine Top Smith - Pine Top's Boogie Woogie [take B]
TTITLE4=Pine Top Smith - I Got More Sense Than That
TTITLE5=Pine Top Smith - I'm Sober Now
TTITLE6=Pine Top Smith - Big Boy They Can't Do That
TTITLE7=Pine Top Smith - Jump Steady Blues [take A]
TTITLE8=Pine Top Smith - Jump Steady Blues [take B]
TTITLE9=Pine Top Smith - Now I Ain't Got Nothing at All
TTITLE10=Pine Top Smith - Nobody Knows You When You're Down and Out
TTITLE11=Charles Avery - Dearborn Street Breakdown
TTITLE12=Freddie "Redd" Nicholson - Tee Roller's Rub
TTITLE13=Freddie "Redd" Nicholson - Dirty No Gooder
TTITLE14=Freddie "Redd" Nicholson - You Gonna Miss Me Blues
TTITLE15=Freddie "Redd" Nicholson - I Ain't Sleepy
TTITLE16=Freddie "Redd" Nicholson - Freddie's Got the Blues
TTITLE17="Jabo" Williams - Ko Ko Mo Blues Part 1
TTITLE18="Jabo" Williams - Ko Ko Mo Blues Part 2
TTITLE19="Jabo" Williams - House Lady Blues
TTITLE20="Jabo" Williams - Jab Blues
TTITLE21="Jabo" Williams - My Woman Blues
TTITLE22="Jabo" Williams - Polock Blues
TTITLE23="Jabo" Williams - Pratt City Blues
TTITLE24="Jabo" Williams - Fat Mama Blues
EXTD=
EXTT0=
EXTT1=
EXTT2=
EXTT3=
EXTT4=
EXTT5=
EXTT6=
EXTT7=
EXTT8=
EXTT9=
EXTT10=
EXTT11=
EXTT12=
EXTT13=
EXTT14=
EXTT15=
EXTT16=
EXTT17=
EXTT18=
EXTT19=
EXTT20=
EXTT21=
EXTT22=
EXTT23=
EXTT24=
PLAYORDER=
